<mxfile host="app.diagrams.net" modified="2024-07-01T03:23:28.812Z" agent="Mozilla/5.0 (Windows NT 10.0; Win64; x64) AppleWebKit/537.36 (KHTML, like Gecko) Chrome/126.0.0.0 Safari/537.36" etag="A295W1PIR3jq2ivrfFMS" version="24.6.4" type="github">
  <diagram id="C5RBs43oDa-KdzZeNtuy" name="Page-1">
    <mxGraphModel dx="2219" dy="557" grid="0" gridSize="10" guides="1" tooltips="1" connect="1" arrows="1" fold="1" page="1" pageScale="1" pageWidth="1169" pageHeight="1654" math="0" shadow="0">
      <root>
        <mxCell id="WIyWlLk6GJQsqaUBKTNV-0" />
        <mxCell id="WIyWlLk6GJQsqaUBKTNV-1" parent="WIyWlLk6GJQsqaUBKTNV-0" />
        <mxCell id="WIyWlLk6GJQsqaUBKTNV-2" value="" style="rounded=0;html=1;jettySize=auto;orthogonalLoop=1;fontSize=11;endArrow=block;endFill=0;endSize=8;strokeWidth=1;shadow=0;labelBackgroundColor=none;edgeStyle=orthogonalEdgeStyle;" parent="WIyWlLk6GJQsqaUBKTNV-1" source="WIyWlLk6GJQsqaUBKTNV-3" target="WIyWlLk6GJQsqaUBKTNV-6" edge="1">
          <mxGeometry relative="1" as="geometry" />
        </mxCell>
        <mxCell id="WIyWlLk6GJQsqaUBKTNV-3" value="Agent启动&lt;br&gt;" style="rounded=1;whiteSpace=wrap;html=1;fontSize=12;glass=0;strokeWidth=1;shadow=0;" parent="WIyWlLk6GJQsqaUBKTNV-1" vertex="1">
          <mxGeometry x="160" y="80" width="120" height="40" as="geometry" />
        </mxCell>
        <mxCell id="WIyWlLk6GJQsqaUBKTNV-4" value="active" style="rounded=0;html=1;jettySize=auto;orthogonalLoop=1;fontSize=11;endArrow=block;endFill=0;endSize=8;strokeWidth=1;shadow=0;labelBackgroundColor=none;edgeStyle=orthogonalEdgeStyle;" parent="WIyWlLk6GJQsqaUBKTNV-1" source="WIyWlLk6GJQsqaUBKTNV-6" target="Fn6N18bhozyeCv0faZj1-1" edge="1">
          <mxGeometry y="20" relative="1" as="geometry">
            <mxPoint as="offset" />
            <mxPoint x="220" y="290" as="targetPoint" />
          </mxGeometry>
        </mxCell>
        <mxCell id="WIyWlLk6GJQsqaUBKTNV-5" value="passive" style="edgeStyle=orthogonalEdgeStyle;rounded=0;html=1;jettySize=auto;orthogonalLoop=1;fontSize=11;endArrow=block;endFill=0;endSize=8;strokeWidth=1;shadow=0;labelBackgroundColor=none;" parent="WIyWlLk6GJQsqaUBKTNV-1" source="WIyWlLk6GJQsqaUBKTNV-6" target="WIyWlLk6GJQsqaUBKTNV-7" edge="1">
          <mxGeometry y="10" relative="1" as="geometry">
            <mxPoint as="offset" />
          </mxGeometry>
        </mxCell>
        <mxCell id="Fn6N18bhozyeCv0faZj1-13" value="" style="edgeStyle=orthogonalEdgeStyle;rounded=0;orthogonalLoop=1;jettySize=auto;html=1;labelBorderColor=none;" parent="WIyWlLk6GJQsqaUBKTNV-1" source="WIyWlLk6GJQsqaUBKTNV-6" target="Fn6N18bhozyeCv0faZj1-12" edge="1">
          <mxGeometry relative="1" as="geometry" />
        </mxCell>
        <mxCell id="Fn6N18bhozyeCv0faZj1-14" value="Text" style="edgeLabel;html=1;align=center;verticalAlign=middle;resizable=0;points=[];" parent="Fn6N18bhozyeCv0faZj1-13" vertex="1" connectable="0">
          <mxGeometry x="-0.3143" relative="1" as="geometry">
            <mxPoint y="10" as="offset" />
          </mxGeometry>
        </mxCell>
        <mxCell id="Fn6N18bhozyeCv0faZj1-15" value="callback" style="edgeLabel;html=1;align=center;verticalAlign=middle;resizable=0;points=[];" parent="Fn6N18bhozyeCv0faZj1-13" vertex="1" connectable="0">
          <mxGeometry x="-0.2571" y="-8" relative="1" as="geometry">
            <mxPoint as="offset" />
          </mxGeometry>
        </mxCell>
        <mxCell id="WIyWlLk6GJQsqaUBKTNV-6" value="collectMode=？" style="rhombus;whiteSpace=wrap;html=1;shadow=0;fontFamily=Helvetica;fontSize=12;align=center;strokeWidth=1;spacing=6;spacingTop=-4;" parent="WIyWlLk6GJQsqaUBKTNV-1" vertex="1">
          <mxGeometry x="170" y="170" width="100" height="80" as="geometry" />
        </mxCell>
        <mxCell id="WIyWlLk6GJQsqaUBKTNV-7" value="开启数据提供接口" style="rounded=1;whiteSpace=wrap;html=1;fontSize=12;glass=0;strokeWidth=1;shadow=0;" parent="WIyWlLk6GJQsqaUBKTNV-1" vertex="1">
          <mxGeometry x="-30" y="190" width="120" height="40" as="geometry" />
        </mxCell>
        <mxCell id="WIyWlLk6GJQsqaUBKTNV-8" value="" style="rounded=0;html=1;jettySize=auto;orthogonalLoop=1;fontSize=11;endArrow=block;endFill=0;endSize=8;strokeWidth=1;shadow=0;labelBackgroundColor=none;edgeStyle=orthogonalEdgeStyle;" parent="WIyWlLk6GJQsqaUBKTNV-1" target="WIyWlLk6GJQsqaUBKTNV-11" edge="1">
          <mxGeometry x="0.3222" y="20" relative="1" as="geometry">
            <mxPoint as="offset" />
            <mxPoint x="220" y="370" as="sourcePoint" />
          </mxGeometry>
        </mxCell>
        <mxCell id="WIyWlLk6GJQsqaUBKTNV-11" value="将采集到的数据推送到配置的Server" style="rounded=1;whiteSpace=wrap;html=1;fontSize=12;glass=0;strokeWidth=1;shadow=0;" parent="WIyWlLk6GJQsqaUBKTNV-1" vertex="1">
          <mxGeometry x="160" y="400" width="120" height="40" as="geometry" />
        </mxCell>
        <mxCell id="Fn6N18bhozyeCv0faZj1-1" value="1、根据执行间隔时间开启定时任务&lt;br&gt;2、关闭被动采集模式提供的接口服务" style="rounded=1;whiteSpace=wrap;html=1;" parent="WIyWlLk6GJQsqaUBKTNV-1" vertex="1">
          <mxGeometry x="160" y="300" width="120" height="60" as="geometry" />
        </mxCell>
        <mxCell id="Fn6N18bhozyeCv0faZj1-12" value="1、开启数据提供接口&lt;br&gt;2、该接口被调用时如果触发采集成功，立马返回调用状态、此次调用的唯一标识&lt;br&gt;3、异步执行采集数据功能，处理完相关业务后，调用Server接口，将采集数据和对应的唯一标识一块返回" style="rounded=1;whiteSpace=wrap;html=1;shadow=0;strokeWidth=1;spacing=6;spacingTop=-4;" parent="WIyWlLk6GJQsqaUBKTNV-1" vertex="1">
          <mxGeometry x="370" y="150" width="280" height="120" as="geometry" />
        </mxCell>
        <mxCell id="Fn6N18bhozyeCv0faZj1-24" style="edgeStyle=orthogonalEdgeStyle;rounded=0;orthogonalLoop=1;jettySize=auto;html=1;exitX=0.5;exitY=1;exitDx=0;exitDy=0;" parent="WIyWlLk6GJQsqaUBKTNV-1" source="Fn6N18bhozyeCv0faZj1-18" target="Fn6N18bhozyeCv0faZj1-23" edge="1">
          <mxGeometry relative="1" as="geometry" />
        </mxCell>
        <mxCell id="Fn6N18bhozyeCv0faZj1-18" value="Prometheus&lt;br&gt;触发" style="ellipse;whiteSpace=wrap;html=1;aspect=fixed;" parent="WIyWlLk6GJQsqaUBKTNV-1" vertex="1">
          <mxGeometry x="-150.5" y="575" width="70" height="70" as="geometry" />
        </mxCell>
        <mxCell id="Fn6N18bhozyeCv0faZj1-26" value="no" style="edgeStyle=orthogonalEdgeStyle;rounded=0;orthogonalLoop=1;jettySize=auto;html=1;" parent="WIyWlLk6GJQsqaUBKTNV-1" source="Fn6N18bhozyeCv0faZj1-23" target="Fn6N18bhozyeCv0faZj1-25" edge="1">
          <mxGeometry relative="1" as="geometry" />
        </mxCell>
        <mxCell id="Fn6N18bhozyeCv0faZj1-44" value="yes" style="edgeStyle=orthogonalEdgeStyle;rounded=0;orthogonalLoop=1;jettySize=auto;html=1;" parent="WIyWlLk6GJQsqaUBKTNV-1" source="Fn6N18bhozyeCv0faZj1-23" target="Fn6N18bhozyeCv0faZj1-43" edge="1">
          <mxGeometry relative="1" as="geometry" />
        </mxCell>
        <mxCell id="Fn6N18bhozyeCv0faZj1-23" value="采集主体&lt;br&gt;是否允许采集" style="rhombus;whiteSpace=wrap;html=1;" parent="WIyWlLk6GJQsqaUBKTNV-1" vertex="1">
          <mxGeometry x="-162.5" y="680" width="95" height="80" as="geometry" />
        </mxCell>
        <mxCell id="Fn6N18bhozyeCv0faZj1-38" style="edgeStyle=orthogonalEdgeStyle;rounded=0;orthogonalLoop=1;jettySize=auto;html=1;endArrow=none;endFill=0;" parent="WIyWlLk6GJQsqaUBKTNV-1" source="Fn6N18bhozyeCv0faZj1-25" target="Fn6N18bhozyeCv0faZj1-37" edge="1">
          <mxGeometry relative="1" as="geometry" />
        </mxCell>
        <mxCell id="Fn6N18bhozyeCv0faZj1-42" value="" style="edgeStyle=orthogonalEdgeStyle;rounded=0;orthogonalLoop=1;jettySize=auto;html=1;" parent="WIyWlLk6GJQsqaUBKTNV-1" source="Fn6N18bhozyeCv0faZj1-25" target="Fn6N18bhozyeCv0faZj1-41" edge="1">
          <mxGeometry relative="1" as="geometry" />
        </mxCell>
        <mxCell id="Fn6N18bhozyeCv0faZj1-25" value="组装空数据返回给Prometheus" style="whiteSpace=wrap;html=1;" parent="WIyWlLk6GJQsqaUBKTNV-1" vertex="1">
          <mxGeometry x="50" y="690" width="120" height="60" as="geometry" />
        </mxCell>
        <mxCell id="Fn6N18bhozyeCv0faZj1-37" value="Prometheus存储作为一个时序存储，需要使用空数据占用时序点。以便于数据统计" style="shape=document;whiteSpace=wrap;html=1;boundedLbl=1;fillColor=#ffe6cc;strokeColor=#d79b00;" parent="WIyWlLk6GJQsqaUBKTNV-1" vertex="1">
          <mxGeometry x="50" y="570" width="120" height="80" as="geometry" />
        </mxCell>
        <mxCell id="Fn6N18bhozyeCv0faZj1-41" value="此次采集结束" style="ellipse;whiteSpace=wrap;html=1;" parent="WIyWlLk6GJQsqaUBKTNV-1" vertex="1">
          <mxGeometry x="240" y="680" width="80" height="80" as="geometry" />
        </mxCell>
        <mxCell id="Fn6N18bhozyeCv0faZj1-46" value="" style="edgeStyle=orthogonalEdgeStyle;rounded=0;orthogonalLoop=1;jettySize=auto;html=1;" parent="WIyWlLk6GJQsqaUBKTNV-1" source="Fn6N18bhozyeCv0faZj1-43" target="Fn6N18bhozyeCv0faZj1-45" edge="1">
          <mxGeometry relative="1" as="geometry" />
        </mxCell>
        <mxCell id="Fn6N18bhozyeCv0faZj1-43" value="1、根据配置创建jmx 链接并获取mbeans列表&lt;br&gt;2、根据黑白名单配置过滤掉不需要的mbeans&lt;br&gt;3、根据rule配置将mbeans转换成固定指标输出" style="whiteSpace=wrap;html=1;" parent="WIyWlLk6GJQsqaUBKTNV-1" vertex="1">
          <mxGeometry x="-242.5" y="820" width="255" height="60" as="geometry" />
        </mxCell>
        <mxCell id="Fn6N18bhozyeCv0faZj1-48" value="" style="edgeStyle=orthogonalEdgeStyle;rounded=0;orthogonalLoop=1;jettySize=auto;html=1;" parent="WIyWlLk6GJQsqaUBKTNV-1" source="Fn6N18bhozyeCv0faZj1-45" target="Fn6N18bhozyeCv0faZj1-47" edge="1">
          <mxGeometry relative="1" as="geometry" />
        </mxCell>
        <mxCell id="Fn6N18bhozyeCv0faZj1-45" value="获取金仓查询历史数据、&lt;br&gt;慢查询数据" style="whiteSpace=wrap;html=1;" parent="WIyWlLk6GJQsqaUBKTNV-1" vertex="1">
          <mxGeometry x="-182.5" y="920" width="135" height="40" as="geometry" />
        </mxCell>
        <mxCell id="Fn6N18bhozyeCv0faZj1-49" value="no" style="edgeStyle=orthogonalEdgeStyle;rounded=0;orthogonalLoop=1;jettySize=auto;html=1;entryX=0.5;entryY=1;entryDx=0;entryDy=0;" parent="WIyWlLk6GJQsqaUBKTNV-1" source="Fn6N18bhozyeCv0faZj1-47" target="Fn6N18bhozyeCv0faZj1-25" edge="1">
          <mxGeometry x="-0.5701" relative="1" as="geometry">
            <mxPoint as="offset" />
          </mxGeometry>
        </mxCell>
        <mxCell id="Fn6N18bhozyeCv0faZj1-52" value="yes&lt;br&gt;" style="edgeStyle=orthogonalEdgeStyle;rounded=0;orthogonalLoop=1;jettySize=auto;html=1;" parent="WIyWlLk6GJQsqaUBKTNV-1" source="Fn6N18bhozyeCv0faZj1-47" target="Fn6N18bhozyeCv0faZj1-51" edge="1">
          <mxGeometry relative="1" as="geometry" />
        </mxCell>
        <mxCell id="Fn6N18bhozyeCv0faZj1-47" value="是否是&lt;br&gt;新增数据" style="rhombus;whiteSpace=wrap;html=1;" parent="WIyWlLk6GJQsqaUBKTNV-1" vertex="1">
          <mxGeometry x="-152.5" y="990" width="75" height="70" as="geometry" />
        </mxCell>
        <mxCell id="Fn6N18bhozyeCv0faZj1-53" value="no" style="edgeStyle=orthogonalEdgeStyle;rounded=0;orthogonalLoop=1;jettySize=auto;html=1;" parent="WIyWlLk6GJQsqaUBKTNV-1" source="Fn6N18bhozyeCv0faZj1-51" target="Fn6N18bhozyeCv0faZj1-25" edge="1">
          <mxGeometry x="-0.6842" relative="1" as="geometry">
            <mxPoint as="offset" />
          </mxGeometry>
        </mxCell>
        <mxCell id="Fn6N18bhozyeCv0faZj1-56" value="" style="edgeStyle=orthogonalEdgeStyle;rounded=0;orthogonalLoop=1;jettySize=auto;html=1;" parent="WIyWlLk6GJQsqaUBKTNV-1" source="Fn6N18bhozyeCv0faZj1-51" target="Fn6N18bhozyeCv0faZj1-55" edge="1">
          <mxGeometry relative="1" as="geometry" />
        </mxCell>
        <mxCell id="Fn6N18bhozyeCv0faZj1-51" value="新增数据&lt;br&gt;是否有效" style="rhombus;whiteSpace=wrap;html=1;" parent="WIyWlLk6GJQsqaUBKTNV-1" vertex="1">
          <mxGeometry x="-155" y="1100" width="80" height="80" as="geometry" />
        </mxCell>
        <mxCell id="Fn6N18bhozyeCv0faZj1-57" style="edgeStyle=orthogonalEdgeStyle;rounded=0;orthogonalLoop=1;jettySize=auto;html=1;entryX=0.5;entryY=1;entryDx=0;entryDy=0;" parent="WIyWlLk6GJQsqaUBKTNV-1" source="Fn6N18bhozyeCv0faZj1-55" target="Fn6N18bhozyeCv0faZj1-41" edge="1">
          <mxGeometry relative="1" as="geometry" />
        </mxCell>
        <mxCell id="Fn6N18bhozyeCv0faZj1-55" value="组装成Prometheus存储数据格式" style="whiteSpace=wrap;html=1;" parent="WIyWlLk6GJQsqaUBKTNV-1" vertex="1">
          <mxGeometry x="-175" y="1210" width="120" height="60" as="geometry" />
        </mxCell>
        <mxCell id="rR-R2T6HtGvjXy58BRLV-89" value="Prometheus&lt;br&gt;触发" style="ellipse;whiteSpace=wrap;html=1;aspect=fixed;" parent="WIyWlLk6GJQsqaUBKTNV-1" vertex="1">
          <mxGeometry x="575" y="680" width="70" height="70" as="geometry" />
        </mxCell>
        <mxCell id="rR-R2T6HtGvjXy58BRLV-91" value="" style="edgeStyle=orthogonalEdgeStyle;rounded=0;orthogonalLoop=1;jettySize=auto;html=1;" parent="WIyWlLk6GJQsqaUBKTNV-1" target="rR-R2T6HtGvjXy58BRLV-99" edge="1">
          <mxGeometry relative="1" as="geometry">
            <mxPoint x="607.5" y="750" as="sourcePoint" />
          </mxGeometry>
        </mxCell>
        <mxCell id="rR-R2T6HtGvjXy58BRLV-93" style="edgeStyle=orthogonalEdgeStyle;rounded=0;orthogonalLoop=1;jettySize=auto;html=1;endArrow=none;endFill=0;" parent="WIyWlLk6GJQsqaUBKTNV-1" source="rR-R2T6HtGvjXy58BRLV-95" target="rR-R2T6HtGvjXy58BRLV-96" edge="1">
          <mxGeometry relative="1" as="geometry" />
        </mxCell>
        <mxCell id="rR-R2T6HtGvjXy58BRLV-94" value="" style="edgeStyle=orthogonalEdgeStyle;rounded=0;orthogonalLoop=1;jettySize=auto;html=1;" parent="WIyWlLk6GJQsqaUBKTNV-1" source="rR-R2T6HtGvjXy58BRLV-95" target="rR-R2T6HtGvjXy58BRLV-97" edge="1">
          <mxGeometry relative="1" as="geometry" />
        </mxCell>
        <mxCell id="rR-R2T6HtGvjXy58BRLV-95" value="组装空数据返回给Prometheus" style="whiteSpace=wrap;html=1;" parent="WIyWlLk6GJQsqaUBKTNV-1" vertex="1">
          <mxGeometry x="830" y="810" width="120" height="60" as="geometry" />
        </mxCell>
        <mxCell id="rR-R2T6HtGvjXy58BRLV-96" value="Prometheus存储作为一个时序存储，需要使用空数据占用时序点。以便于数据统计" style="shape=document;whiteSpace=wrap;html=1;boundedLbl=1;fillColor=#ffe6cc;strokeColor=#d79b00;" parent="WIyWlLk6GJQsqaUBKTNV-1" vertex="1">
          <mxGeometry x="830" y="670" width="120" height="80" as="geometry" />
        </mxCell>
        <mxCell id="rR-R2T6HtGvjXy58BRLV-97" value="此次采集结束" style="ellipse;whiteSpace=wrap;html=1;" parent="WIyWlLk6GJQsqaUBKTNV-1" vertex="1">
          <mxGeometry x="990" y="800" width="80" height="80" as="geometry" />
        </mxCell>
        <mxCell id="rR-R2T6HtGvjXy58BRLV-98" value="" style="edgeStyle=orthogonalEdgeStyle;rounded=0;orthogonalLoop=1;jettySize=auto;html=1;" parent="WIyWlLk6GJQsqaUBKTNV-1" source="rR-R2T6HtGvjXy58BRLV-99" target="rR-R2T6HtGvjXy58BRLV-101" edge="1">
          <mxGeometry relative="1" as="geometry" />
        </mxCell>
        <mxCell id="rR-R2T6HtGvjXy58BRLV-110" value="" style="edgeStyle=orthogonalEdgeStyle;rounded=0;orthogonalLoop=1;jettySize=auto;html=1;" parent="WIyWlLk6GJQsqaUBKTNV-1" source="rR-R2T6HtGvjXy58BRLV-99" target="rR-R2T6HtGvjXy58BRLV-95" edge="1">
          <mxGeometry relative="1" as="geometry" />
        </mxCell>
        <mxCell id="rR-R2T6HtGvjXy58BRLV-111" value="采集为空" style="edgeLabel;html=1;align=center;verticalAlign=middle;resizable=0;points=[];" parent="rR-R2T6HtGvjXy58BRLV-110" vertex="1" connectable="0">
          <mxGeometry x="-0.2421" y="-2" relative="1" as="geometry">
            <mxPoint as="offset" />
          </mxGeometry>
        </mxCell>
        <mxCell id="rR-R2T6HtGvjXy58BRLV-99" value="1、根据配置创建jmx 链接并获取mbeans列表&lt;br&gt;2、根据黑白名单配置过滤掉不需要的mbeans&lt;br&gt;3、根据rule配置将mbeans转换成固定指标输出" style="whiteSpace=wrap;html=1;" parent="WIyWlLk6GJQsqaUBKTNV-1" vertex="1">
          <mxGeometry x="480" y="810" width="255" height="60" as="geometry" />
        </mxCell>
        <mxCell id="rR-R2T6HtGvjXy58BRLV-100" value="" style="edgeStyle=orthogonalEdgeStyle;rounded=0;orthogonalLoop=1;jettySize=auto;html=1;" parent="WIyWlLk6GJQsqaUBKTNV-1" source="rR-R2T6HtGvjXy58BRLV-101" target="rR-R2T6HtGvjXy58BRLV-104" edge="1">
          <mxGeometry relative="1" as="geometry" />
        </mxCell>
        <mxCell id="rR-R2T6HtGvjXy58BRLV-101" value="获取金仓查询历史数据、&lt;br&gt;慢查询数据" style="whiteSpace=wrap;html=1;" parent="WIyWlLk6GJQsqaUBKTNV-1" vertex="1">
          <mxGeometry x="540" y="910" width="135" height="40" as="geometry" />
        </mxCell>
        <mxCell id="rR-R2T6HtGvjXy58BRLV-102" value="no" style="edgeStyle=orthogonalEdgeStyle;rounded=0;orthogonalLoop=1;jettySize=auto;html=1;entryX=0.5;entryY=1;entryDx=0;entryDy=0;" parent="WIyWlLk6GJQsqaUBKTNV-1" source="rR-R2T6HtGvjXy58BRLV-104" target="rR-R2T6HtGvjXy58BRLV-95" edge="1">
          <mxGeometry x="-0.5701" relative="1" as="geometry">
            <mxPoint as="offset" />
          </mxGeometry>
        </mxCell>
        <mxCell id="rR-R2T6HtGvjXy58BRLV-103" value="yes&lt;br&gt;" style="edgeStyle=orthogonalEdgeStyle;rounded=0;orthogonalLoop=1;jettySize=auto;html=1;" parent="WIyWlLk6GJQsqaUBKTNV-1" source="rR-R2T6HtGvjXy58BRLV-104" target="rR-R2T6HtGvjXy58BRLV-107" edge="1">
          <mxGeometry relative="1" as="geometry" />
        </mxCell>
        <mxCell id="rR-R2T6HtGvjXy58BRLV-104" value="是否是&lt;br&gt;新增数据" style="rhombus;whiteSpace=wrap;html=1;" parent="WIyWlLk6GJQsqaUBKTNV-1" vertex="1">
          <mxGeometry x="570" y="980" width="75" height="70" as="geometry" />
        </mxCell>
        <mxCell id="rR-R2T6HtGvjXy58BRLV-105" value="no" style="edgeStyle=orthogonalEdgeStyle;rounded=0;orthogonalLoop=1;jettySize=auto;html=1;" parent="WIyWlLk6GJQsqaUBKTNV-1" source="rR-R2T6HtGvjXy58BRLV-107" target="rR-R2T6HtGvjXy58BRLV-95" edge="1">
          <mxGeometry x="-0.6842" relative="1" as="geometry">
            <mxPoint as="offset" />
          </mxGeometry>
        </mxCell>
        <mxCell id="rR-R2T6HtGvjXy58BRLV-106" value="" style="edgeStyle=orthogonalEdgeStyle;rounded=0;orthogonalLoop=1;jettySize=auto;html=1;" parent="WIyWlLk6GJQsqaUBKTNV-1" source="rR-R2T6HtGvjXy58BRLV-107" target="rR-R2T6HtGvjXy58BRLV-109" edge="1">
          <mxGeometry relative="1" as="geometry" />
        </mxCell>
        <mxCell id="rR-R2T6HtGvjXy58BRLV-107" value="新增数据&lt;br&gt;是否有效" style="rhombus;whiteSpace=wrap;html=1;" parent="WIyWlLk6GJQsqaUBKTNV-1" vertex="1">
          <mxGeometry x="567.5" y="1090" width="80" height="80" as="geometry" />
        </mxCell>
        <mxCell id="rR-R2T6HtGvjXy58BRLV-108" style="edgeStyle=orthogonalEdgeStyle;rounded=0;orthogonalLoop=1;jettySize=auto;html=1;entryX=0.5;entryY=1;entryDx=0;entryDy=0;" parent="WIyWlLk6GJQsqaUBKTNV-1" source="rR-R2T6HtGvjXy58BRLV-109" target="rR-R2T6HtGvjXy58BRLV-97" edge="1">
          <mxGeometry relative="1" as="geometry" />
        </mxCell>
        <mxCell id="rR-R2T6HtGvjXy58BRLV-109" value="组装成Prometheus存储数据格式" style="whiteSpace=wrap;html=1;" parent="WIyWlLk6GJQsqaUBKTNV-1" vertex="1">
          <mxGeometry x="547.5" y="1200" width="120" height="60" as="geometry" />
        </mxCell>
        <mxCell id="rR-R2T6HtGvjXy58BRLV-118" value="" style="edgeStyle=orthogonalEdgeStyle;rounded=0;orthogonalLoop=1;jettySize=auto;html=1;" parent="WIyWlLk6GJQsqaUBKTNV-1" source="rR-R2T6HtGvjXy58BRLV-116" target="rR-R2T6HtGvjXy58BRLV-117" edge="1">
          <mxGeometry relative="1" as="geometry" />
        </mxCell>
        <mxCell id="rR-R2T6HtGvjXy58BRLV-116" value="Agent启动" style="ellipse;whiteSpace=wrap;html=1;aspect=fixed;" parent="WIyWlLk6GJQsqaUBKTNV-1" vertex="1">
          <mxGeometry x="-730" y="250" width="80" height="80" as="geometry" />
        </mxCell>
        <mxCell id="rR-R2T6HtGvjXy58BRLV-120" value="" style="edgeStyle=orthogonalEdgeStyle;rounded=0;orthogonalLoop=1;jettySize=auto;html=1;" parent="WIyWlLk6GJQsqaUBKTNV-1" source="rR-R2T6HtGvjXy58BRLV-117" target="rR-R2T6HtGvjXy58BRLV-119" edge="1">
          <mxGeometry relative="1" as="geometry" />
        </mxCell>
        <mxCell id="rR-R2T6HtGvjXy58BRLV-121" value="被动、回调模式" style="edgeLabel;html=1;align=center;verticalAlign=middle;resizable=0;points=[];" parent="rR-R2T6HtGvjXy58BRLV-120" vertex="1" connectable="0">
          <mxGeometry x="-0.2706" relative="1" as="geometry">
            <mxPoint as="offset" />
          </mxGeometry>
        </mxCell>
        <mxCell id="rR-R2T6HtGvjXy58BRLV-126" value="" style="edgeStyle=orthogonalEdgeStyle;rounded=0;orthogonalLoop=1;jettySize=auto;html=1;" parent="WIyWlLk6GJQsqaUBKTNV-1" source="rR-R2T6HtGvjXy58BRLV-117" target="rR-R2T6HtGvjXy58BRLV-125" edge="1">
          <mxGeometry relative="1" as="geometry" />
        </mxCell>
        <mxCell id="rR-R2T6HtGvjXy58BRLV-127" value="主动模式" style="edgeLabel;html=1;align=center;verticalAlign=middle;resizable=0;points=[];" parent="rR-R2T6HtGvjXy58BRLV-126" vertex="1" connectable="0">
          <mxGeometry x="-0.1667" relative="1" as="geometry">
            <mxPoint as="offset" />
          </mxGeometry>
        </mxCell>
        <mxCell id="rR-R2T6HtGvjXy58BRLV-117" value="判断&lt;br&gt;采集模式" style="rhombus;whiteSpace=wrap;html=1;" parent="WIyWlLk6GJQsqaUBKTNV-1" vertex="1">
          <mxGeometry x="-730" y="370" width="80" height="70" as="geometry" />
        </mxCell>
        <mxCell id="rR-R2T6HtGvjXy58BRLV-141" value="" style="edgeStyle=orthogonalEdgeStyle;rounded=0;orthogonalLoop=1;jettySize=auto;html=1;" parent="WIyWlLk6GJQsqaUBKTNV-1" source="rR-R2T6HtGvjXy58BRLV-119" target="rR-R2T6HtGvjXy58BRLV-140" edge="1">
          <mxGeometry relative="1" as="geometry" />
        </mxCell>
        <mxCell id="rR-R2T6HtGvjXy58BRLV-119" value="Agent提供采集信息接口，&lt;br&gt;服务端通过http接口触发" style="rounded=1;whiteSpace=wrap;html=1;" parent="WIyWlLk6GJQsqaUBKTNV-1" vertex="1">
          <mxGeometry x="-770" y="500" width="160" height="60" as="geometry" />
        </mxCell>
        <mxCell id="rR-R2T6HtGvjXy58BRLV-162" value="" style="edgeStyle=orthogonalEdgeStyle;rounded=0;orthogonalLoop=1;jettySize=auto;html=1;" parent="WIyWlLk6GJQsqaUBKTNV-1" source="rR-R2T6HtGvjXy58BRLV-125" target="rR-R2T6HtGvjXy58BRLV-161" edge="1">
          <mxGeometry relative="1" as="geometry" />
        </mxCell>
        <mxCell id="rR-R2T6HtGvjXy58BRLV-125" value="Agent通过定时配置文件开启定时任务" style="rounded=1;whiteSpace=wrap;html=1;" parent="WIyWlLk6GJQsqaUBKTNV-1" vertex="1">
          <mxGeometry x="-940" y="375" width="120" height="60" as="geometry" />
        </mxCell>
        <mxCell id="rR-R2T6HtGvjXy58BRLV-143" value="" style="edgeStyle=orthogonalEdgeStyle;rounded=0;orthogonalLoop=1;jettySize=auto;html=1;" parent="WIyWlLk6GJQsqaUBKTNV-1" source="rR-R2T6HtGvjXy58BRLV-140" target="rR-R2T6HtGvjXy58BRLV-142" edge="1">
          <mxGeometry relative="1" as="geometry" />
        </mxCell>
        <mxCell id="rR-R2T6HtGvjXy58BRLV-144" value="被动模式" style="edgeLabel;html=1;align=center;verticalAlign=middle;resizable=0;points=[];" parent="rR-R2T6HtGvjXy58BRLV-143" vertex="1" connectable="0">
          <mxGeometry x="0.2" y="2" relative="1" as="geometry">
            <mxPoint as="offset" />
          </mxGeometry>
        </mxCell>
        <mxCell id="rR-R2T6HtGvjXy58BRLV-148" value="" style="edgeStyle=orthogonalEdgeStyle;rounded=0;orthogonalLoop=1;jettySize=auto;html=1;" parent="WIyWlLk6GJQsqaUBKTNV-1" source="rR-R2T6HtGvjXy58BRLV-140" target="rR-R2T6HtGvjXy58BRLV-147" edge="1">
          <mxGeometry relative="1" as="geometry" />
        </mxCell>
        <mxCell id="rR-R2T6HtGvjXy58BRLV-150" value="回调模式" style="edgeLabel;html=1;align=center;verticalAlign=middle;resizable=0;points=[];" parent="rR-R2T6HtGvjXy58BRLV-148" vertex="1" connectable="0">
          <mxGeometry x="-0.1" y="2" relative="1" as="geometry">
            <mxPoint as="offset" />
          </mxGeometry>
        </mxCell>
        <mxCell id="rR-R2T6HtGvjXy58BRLV-140" value="判断&lt;br style=&quot;border-color: var(--border-color);&quot;&gt;采集模式" style="rhombus;whiteSpace=wrap;html=1;rounded=1;" parent="WIyWlLk6GJQsqaUBKTNV-1" vertex="1">
          <mxGeometry x="-730" y="590" width="80" height="80" as="geometry" />
        </mxCell>
        <mxCell id="rR-R2T6HtGvjXy58BRLV-146" value="" style="edgeStyle=orthogonalEdgeStyle;rounded=0;orthogonalLoop=1;jettySize=auto;html=1;" parent="WIyWlLk6GJQsqaUBKTNV-1" source="rR-R2T6HtGvjXy58BRLV-142" target="rR-R2T6HtGvjXy58BRLV-145" edge="1">
          <mxGeometry relative="1" as="geometry" />
        </mxCell>
        <mxCell id="rR-R2T6HtGvjXy58BRLV-142" value="采集数据、组装数据" style="whiteSpace=wrap;html=1;rounded=1;" parent="WIyWlLk6GJQsqaUBKTNV-1" vertex="1">
          <mxGeometry x="-750" y="720" width="120" height="50" as="geometry" />
        </mxCell>
        <mxCell id="rR-R2T6HtGvjXy58BRLV-145" value="采集结束" style="ellipse;whiteSpace=wrap;html=1;rounded=1;" parent="WIyWlLk6GJQsqaUBKTNV-1" vertex="1">
          <mxGeometry x="-730" y="820" width="80" height="80" as="geometry" />
        </mxCell>
        <mxCell id="rR-R2T6HtGvjXy58BRLV-155" value="" style="edgeStyle=orthogonalEdgeStyle;rounded=0;orthogonalLoop=1;jettySize=auto;html=1;" parent="WIyWlLk6GJQsqaUBKTNV-1" source="rR-R2T6HtGvjXy58BRLV-147" target="rR-R2T6HtGvjXy58BRLV-154" edge="1">
          <mxGeometry relative="1" as="geometry" />
        </mxCell>
        <mxCell id="rR-R2T6HtGvjXy58BRLV-156" value="异步执行" style="edgeLabel;html=1;align=center;verticalAlign=middle;resizable=0;points=[];" parent="rR-R2T6HtGvjXy58BRLV-155" vertex="1" connectable="0">
          <mxGeometry x="-0.325" y="2" relative="1" as="geometry">
            <mxPoint as="offset" />
          </mxGeometry>
        </mxCell>
        <mxCell id="rR-R2T6HtGvjXy58BRLV-147" value="采集数据" style="rounded=1;whiteSpace=wrap;html=1;" parent="WIyWlLk6GJQsqaUBKTNV-1" vertex="1">
          <mxGeometry x="-570" y="600" width="120" height="60" as="geometry" />
        </mxCell>
        <mxCell id="rR-R2T6HtGvjXy58BRLV-152" value="" style="endArrow=classic;html=1;rounded=0;" parent="WIyWlLk6GJQsqaUBKTNV-1" source="rR-R2T6HtGvjXy58BRLV-147" edge="1">
          <mxGeometry width="50" height="50" relative="1" as="geometry">
            <mxPoint x="-520" y="710" as="sourcePoint" />
            <mxPoint x="-470" y="660" as="targetPoint" />
          </mxGeometry>
        </mxCell>
        <mxCell id="rR-R2T6HtGvjXy58BRLV-153" value="" style="endArrow=classic;html=1;rounded=0;exitX=0.5;exitY=1;exitDx=0;exitDy=0;" parent="WIyWlLk6GJQsqaUBKTNV-1" source="rR-R2T6HtGvjXy58BRLV-147" target="rR-R2T6HtGvjXy58BRLV-145" edge="1">
          <mxGeometry width="50" height="50" relative="1" as="geometry">
            <mxPoint x="-520" y="770" as="sourcePoint" />
            <mxPoint x="-470" y="720" as="targetPoint" />
            <Array as="points">
              <mxPoint x="-510" y="860" />
            </Array>
          </mxGeometry>
        </mxCell>
        <mxCell id="rR-R2T6HtGvjXy58BRLV-160" value="同步返回采集状态成功" style="edgeLabel;html=1;align=center;verticalAlign=middle;resizable=0;points=[];" parent="rR-R2T6HtGvjXy58BRLV-153" vertex="1" connectable="0">
          <mxGeometry x="-0.4824" y="1" relative="1" as="geometry">
            <mxPoint as="offset" />
          </mxGeometry>
        </mxCell>
        <mxCell id="rR-R2T6HtGvjXy58BRLV-158" value="" style="edgeStyle=orthogonalEdgeStyle;rounded=0;orthogonalLoop=1;jettySize=auto;html=1;" parent="WIyWlLk6GJQsqaUBKTNV-1" source="rR-R2T6HtGvjXy58BRLV-154" target="rR-R2T6HtGvjXy58BRLV-157" edge="1">
          <mxGeometry relative="1" as="geometry" />
        </mxCell>
        <mxCell id="rR-R2T6HtGvjXy58BRLV-154" value="计算采集信息，&lt;br&gt;组装数据" style="whiteSpace=wrap;html=1;rounded=1;" parent="WIyWlLk6GJQsqaUBKTNV-1" vertex="1">
          <mxGeometry x="-380" y="600" width="120" height="60" as="geometry" />
        </mxCell>
        <mxCell id="rR-R2T6HtGvjXy58BRLV-159" style="edgeStyle=orthogonalEdgeStyle;rounded=0;orthogonalLoop=1;jettySize=auto;html=1;exitX=0.5;exitY=1;exitDx=0;exitDy=0;entryX=1;entryY=0.5;entryDx=0;entryDy=0;" parent="WIyWlLk6GJQsqaUBKTNV-1" source="rR-R2T6HtGvjXy58BRLV-157" target="rR-R2T6HtGvjXy58BRLV-145" edge="1">
          <mxGeometry relative="1" as="geometry" />
        </mxCell>
        <mxCell id="rR-R2T6HtGvjXy58BRLV-157" value="回调服务端数据&lt;br&gt;接收接口" style="whiteSpace=wrap;html=1;rounded=1;" parent="WIyWlLk6GJQsqaUBKTNV-1" vertex="1">
          <mxGeometry x="-380" y="710" width="120" height="60" as="geometry" />
        </mxCell>
        <mxCell id="rR-R2T6HtGvjXy58BRLV-163" style="edgeStyle=orthogonalEdgeStyle;rounded=0;orthogonalLoop=1;jettySize=auto;html=1;exitX=0.5;exitY=1;exitDx=0;exitDy=0;entryX=0;entryY=0.5;entryDx=0;entryDy=0;" parent="WIyWlLk6GJQsqaUBKTNV-1" source="rR-R2T6HtGvjXy58BRLV-161" target="rR-R2T6HtGvjXy58BRLV-145" edge="1">
          <mxGeometry relative="1" as="geometry" />
        </mxCell>
        <mxCell id="rR-R2T6HtGvjXy58BRLV-161" value="触发采集，采集数据，推送服务端接受数据接口" style="whiteSpace=wrap;html=1;rounded=1;" parent="WIyWlLk6GJQsqaUBKTNV-1" vertex="1">
          <mxGeometry x="-940" y="515" width="120" height="60" as="geometry" />
        </mxCell>
        <mxCell id="8RoblzWU8Wcmcp5lx1PB-2" value="" style="edgeStyle=orthogonalEdgeStyle;rounded=0;orthogonalLoop=1;jettySize=auto;html=1;" edge="1" parent="WIyWlLk6GJQsqaUBKTNV-1" source="8RoblzWU8Wcmcp5lx1PB-0" target="8RoblzWU8Wcmcp5lx1PB-1">
          <mxGeometry relative="1" as="geometry" />
        </mxCell>
        <mxCell id="8RoblzWU8Wcmcp5lx1PB-5" value="定时抓取" style="edgeLabel;html=1;align=center;verticalAlign=middle;resizable=0;points=[];" vertex="1" connectable="0" parent="8RoblzWU8Wcmcp5lx1PB-2">
          <mxGeometry x="-0.165" relative="1" as="geometry">
            <mxPoint as="offset" />
          </mxGeometry>
        </mxCell>
        <mxCell id="8RoblzWU8Wcmcp5lx1PB-20" value="" style="edgeStyle=orthogonalEdgeStyle;rounded=0;orthogonalLoop=1;jettySize=auto;html=1;" edge="1" parent="WIyWlLk6GJQsqaUBKTNV-1" source="8RoblzWU8Wcmcp5lx1PB-0" target="8RoblzWU8Wcmcp5lx1PB-19">
          <mxGeometry relative="1" as="geometry" />
        </mxCell>
        <mxCell id="8RoblzWU8Wcmcp5lx1PB-21" value="存储" style="edgeLabel;html=1;align=center;verticalAlign=middle;resizable=0;points=[];" vertex="1" connectable="0" parent="8RoblzWU8Wcmcp5lx1PB-20">
          <mxGeometry x="-0.225" relative="1" as="geometry">
            <mxPoint as="offset" />
          </mxGeometry>
        </mxCell>
        <mxCell id="8RoblzWU8Wcmcp5lx1PB-0" value="prometheus&lt;br&gt;server" style="rounded=0;whiteSpace=wrap;html=1;" vertex="1" parent="WIyWlLk6GJQsqaUBKTNV-1">
          <mxGeometry x="-1034" y="1222" width="120" height="60" as="geometry" />
        </mxCell>
        <mxCell id="8RoblzWU8Wcmcp5lx1PB-11" value="" style="edgeStyle=orthogonalEdgeStyle;rounded=0;orthogonalLoop=1;jettySize=auto;html=1;" edge="1" parent="WIyWlLk6GJQsqaUBKTNV-1" source="8RoblzWU8Wcmcp5lx1PB-1" target="8RoblzWU8Wcmcp5lx1PB-10">
          <mxGeometry relative="1" as="geometry" />
        </mxCell>
        <mxCell id="8RoblzWU8Wcmcp5lx1PB-14" value="读取" style="edgeLabel;html=1;align=center;verticalAlign=middle;resizable=0;points=[];" vertex="1" connectable="0" parent="8RoblzWU8Wcmcp5lx1PB-11">
          <mxGeometry x="-0.14" y="3" relative="1" as="geometry">
            <mxPoint as="offset" />
          </mxGeometry>
        </mxCell>
        <mxCell id="8RoblzWU8Wcmcp5lx1PB-15" value="" style="edgeStyle=orthogonalEdgeStyle;rounded=0;orthogonalLoop=1;jettySize=auto;html=1;" edge="1" parent="WIyWlLk6GJQsqaUBKTNV-1" source="8RoblzWU8Wcmcp5lx1PB-1" target="8RoblzWU8Wcmcp5lx1PB-3">
          <mxGeometry relative="1" as="geometry" />
        </mxCell>
        <mxCell id="8RoblzWU8Wcmcp5lx1PB-16" value="定时任务触发" style="edgeLabel;html=1;align=center;verticalAlign=middle;resizable=0;points=[];" vertex="1" connectable="0" parent="8RoblzWU8Wcmcp5lx1PB-15">
          <mxGeometry x="-0.4324" y="-1" relative="1" as="geometry">
            <mxPoint as="offset" />
          </mxGeometry>
        </mxCell>
        <mxCell id="8RoblzWU8Wcmcp5lx1PB-1" value="hive agent" style="whiteSpace=wrap;html=1;rounded=0;" vertex="1" parent="WIyWlLk6GJQsqaUBKTNV-1">
          <mxGeometry x="-790" y="1222" width="120" height="60" as="geometry" />
        </mxCell>
        <mxCell id="8RoblzWU8Wcmcp5lx1PB-18" value="" style="edgeStyle=orthogonalEdgeStyle;rounded=0;orthogonalLoop=1;jettySize=auto;html=1;" edge="1" parent="WIyWlLk6GJQsqaUBKTNV-1" source="8RoblzWU8Wcmcp5lx1PB-3" target="8RoblzWU8Wcmcp5lx1PB-17">
          <mxGeometry relative="1" as="geometry" />
        </mxCell>
        <mxCell id="8RoblzWU8Wcmcp5lx1PB-3" value="统计hive storage&lt;br&gt;shell脚本" style="whiteSpace=wrap;html=1;rounded=0;" vertex="1" parent="WIyWlLk6GJQsqaUBKTNV-1">
          <mxGeometry x="-790" y="1356" width="120" height="60" as="geometry" />
        </mxCell>
        <mxCell id="8RoblzWU8Wcmcp5lx1PB-10" value="内存中存储的hive 表级别storage、数据总行数信息&lt;div&gt;&lt;br/&gt;&lt;/div&gt;" style="whiteSpace=wrap;html=1;rounded=0;" vertex="1" parent="WIyWlLk6GJQsqaUBKTNV-1">
          <mxGeometry x="-560" y="1222" width="168" height="60" as="geometry" />
        </mxCell>
        <mxCell id="8RoblzWU8Wcmcp5lx1PB-23" value="" style="edgeStyle=orthogonalEdgeStyle;rounded=0;orthogonalLoop=1;jettySize=auto;html=1;" edge="1" parent="WIyWlLk6GJQsqaUBKTNV-1" source="8RoblzWU8Wcmcp5lx1PB-17" target="8RoblzWU8Wcmcp5lx1PB-22">
          <mxGeometry relative="1" as="geometry" />
        </mxCell>
        <mxCell id="8RoblzWU8Wcmcp5lx1PB-17" value="统计hive表数据总行数shell脚本" style="whiteSpace=wrap;html=1;rounded=0;" vertex="1" parent="WIyWlLk6GJQsqaUBKTNV-1">
          <mxGeometry x="-790" y="1469" width="120" height="60" as="geometry" />
        </mxCell>
        <mxCell id="8RoblzWU8Wcmcp5lx1PB-19" value="TSDB" style="whiteSpace=wrap;html=1;rounded=0;" vertex="1" parent="WIyWlLk6GJQsqaUBKTNV-1">
          <mxGeometry x="-1034" y="1362" width="120" height="60" as="geometry" />
        </mxCell>
        <mxCell id="8RoblzWU8Wcmcp5lx1PB-24" style="edgeStyle=orthogonalEdgeStyle;rounded=0;orthogonalLoop=1;jettySize=auto;html=1;entryX=0.5;entryY=1;entryDx=0;entryDy=0;" edge="1" parent="WIyWlLk6GJQsqaUBKTNV-1" source="8RoblzWU8Wcmcp5lx1PB-22" target="8RoblzWU8Wcmcp5lx1PB-10">
          <mxGeometry relative="1" as="geometry" />
        </mxCell>
        <mxCell id="8RoblzWU8Wcmcp5lx1PB-26" value="存储" style="edgeLabel;html=1;align=center;verticalAlign=middle;resizable=0;points=[];" vertex="1" connectable="0" parent="8RoblzWU8Wcmcp5lx1PB-24">
          <mxGeometry x="-0.6107" y="-1" relative="1" as="geometry">
            <mxPoint as="offset" />
          </mxGeometry>
        </mxCell>
        <mxCell id="8RoblzWU8Wcmcp5lx1PB-22" value="读取shell脚本临时存储数据文件" style="whiteSpace=wrap;html=1;rounded=0;" vertex="1" parent="WIyWlLk6GJQsqaUBKTNV-1">
          <mxGeometry x="-790" y="1579" width="120" height="60" as="geometry" />
        </mxCell>
      </root>
    </mxGraphModel>
  </diagram>
</mxfile>
